<svg xmlns="http://www.w3.org/2000/svg" viewBox="0 0 400 100" width="400" height="100">
  <g transform="translate(50, 50)">
    <path d="M6-30 C10-40 18-44 24-38 C20-34 14-30 8-28Z" fill="#2D2926"/>
    <path d="M-2-30 C-8-42 -4-46 4-44 C2-38 0-32 -1-30Z" fill="#2D2926" opacity="0.7"/>
    <circle cx="0" cy="0" r="34" fill="#2D2926"/>
    <circle cx="0" cy="-16" r="3" fill="white" opacity="0.08"/>
    <circle cx="-12" cy="-8" r="3" fill="white" opacity="0.06"/>
    <circle cx="12" cy="-8" r="3" fill="white" opacity="0.06"/>
    <circle cx="-6" cy="6" r="3" fill="white" opacity="0.06"/>
    <circle cx="6" cy="6" r="3" fill="white" opacity="0.06"/>
    <circle cx="0" cy="18" r="3" fill="white" opacity="0.06"/>
  </g>
  <g fill="#2D2926">
    <g transform="translate(108.00, 68.00) scale(0.048000, -0.048000)">
      <path d="M100 52V729Q100 751 115.0 766.0Q130 781 151 781Q173 781 188.0 766.0Q203 751 203 729V104H565Q587 104 602.0 89.0Q617 74 617 52Q617 30 602.0 15.0Q587 0 565 0H151Q129 0 114.5 15.0Q100 30 100 52Z"/>
    </g>
    <g transform="translate(139.32, 68.00) scale(0.048000, -0.048000)">
      <path d="M539 503Q539 493 533 479L227 -209Q215 -240 188 -240Q178 -240 164 -234Q134 -221 134 -195Q134 -183 140 -171L240 54L15 481Q10 490 10 502Q10 515 18.0 526.0Q26 537 39 543Q48 547 59 547Q87 547 101 519L284 155L445 518Q458 547 484 547Q497 547 508 542Q539 530 539 503Z"/>
    </g>
    <g transform="translate(165.69, 68.00) scale(0.048000, -0.048000)">
      <path d="M62 273Q62 353 96.5 416.5Q131 480 193.0 515.5Q255 551 333 551Q451 551 529 461Q539 450 539 435Q539 413 517 398Q507 391 494 391Q471 391 455 409Q430 436 400.5 448.5Q371 461 333 461Q256 461 208.0 409.5Q160 358 160 273Q160 219 182.5 176.5Q205 134 245.5 110.0Q286 86 338 86Q406 86 448 121Q467 135 485 135Q499 135 511 126Q530 110 530 90Q530 75 518 63Q446 -4 338 -4Q259 -4 196.0 32.0Q133 68 97.5 131.5Q62 195 62 273Z"/>
    </g>
    <g transform="translate(195.04, 68.00) scale(0.048000, -0.048000)">
      <path d="M603 296V50Q603 28 588.5 13.5Q574 -1 552 -1Q530 -1 515.5 13.5Q501 28 501 50V296Q501 377 457.5 418.5Q414 460 342 460Q300 460 265.5 443.0Q231 426 211.5 397.0Q192 368 192 332V50Q192 28 178.0 13.5Q164 -1 141 -1Q119 -1 104.5 13.5Q90 28 90 50V730Q90 753 104.5 767.0Q119 781 141 781Q164 781 178.0 767.0Q192 753 192 730V485Q224 517 268.0 534.5Q312 552 362 552Q431 552 486.0 522.0Q541 492 572.0 434.5Q603 377 603 296Z"/>
    </g>
    <g transform="translate(228.32, 68.00) scale(0.048000, -0.048000)">
      <path d="M535 238H155Q166 168 218.5 125.0Q271 82 347 82Q377 82 409.5 93.0Q442 104 463 120Q477 131 496 131Q515 131 526 121Q544 106 544 87Q544 69 528 57Q494 30 443.5 13.0Q393 -4 347 -4Q265 -4 200.0 31.5Q135 67 98.5 130.0Q62 193 62 273Q62 353 96.5 416.5Q131 480 192.5 515.5Q254 551 332 551Q409 551 465.0 517.0Q521 483 551.0 422.0Q581 361 581 282Q581 263 568.0 250.5Q555 238 535 238ZM156 318H489Q480 385 439.0 425.0Q398 465 332 465Q259 465 213.5 425.0Q168 385 156 318Z"/>
    </g>
    <g transform="translate(258.63, 68.00) scale(0.048000, -0.048000)">
      <path d="M535 238H155Q166 168 218.5 125.0Q271 82 347 82Q377 82 409.5 93.0Q442 104 463 120Q477 131 496 131Q515 131 526 121Q544 106 544 87Q544 69 528 57Q494 30 443.5 13.0Q393 -4 347 -4Q265 -4 200.0 31.5Q135 67 98.5 130.0Q62 193 62 273Q62 353 96.5 416.5Q131 480 192.5 515.5Q254 551 332 551Q409 551 465.0 517.0Q521 483 551.0 422.0Q581 361 581 282Q581 263 568.0 250.5Q555 238 535 238ZM156 318H489Q480 385 439.0 425.0Q398 465 332 465Q259 465 213.5 425.0Q168 385 156 318Z"/>
    </g>
  </g>
</svg>