<svg width="352" height="415" viewBox="0 0 352 415" fill="none" xmlns="http://www.w3.org/2000/svg">
<path d="M225.378 19.6561C228.078 24.7561 235.278 35.2561 235.878 41.2561L243.378 36.4561C240.078 30.4561 234.078 20.5561 232.278 10.9561L225.378 19.6561Z" fill="#506D56"/>
<path d="M192.025 56.2405L208.225 60.1405C212.125 52.0405 219.325 35.2405 225.325 29.8405C230.125 23.8405 238.225 16.0405 242.725 7.94049L225.025 0.140487C216.025 -2.85951 195.925 43.0405 192.025 56.2405Z" fill="#506D56"/>
<path d="M317.777 212.256C318.677 207.456 322.277 198.456 322.577 194.556C316.877 190.356 308.177 183.456 296.777 177.756C278.177 168.456 241.277 145.356 230.477 103.356C228.377 95.5562 227.177 85.0562 227.177 77.2562C224.177 77.2562 216.077 77.8562 214.277 77.2562C214.877 70.3562 218.177 62.2562 208.877 58.3562C204.077 56.2562 195.077 54.4562 186.977 53.8562C181.577 53.8562 174.077 58.3562 175.577 67.3562L171.377 68.8562L149.477 56.5562C147.377 55.6562 144.077 55.3562 142.577 56.5562L122.177 70.0562C116.477 70.0562 102.077 65.8562 96.0771 65.8562C93.3771 65.8562 91.8771 67.9562 90.6771 69.4562L78.3771 86.2562C77.4771 87.1562 78.0771 86.8562 76.8771 87.1562L55.5771 90.4562C53.1771 91.0562 50.4771 92.2562 49.8771 95.8562C48.0771 102.456 46.5771 113.256 44.7771 115.056C40.5771 118.656 22.5771 125.256 21.9771 130.356L22.5771 158.256C20.1771 164.856 5.4771 175.056 4.8771 180.156C6.0771 186.456 9.3771 196.356 12.3771 203.556C14.1771 209.556 2.1771 221.256 0.077102 227.256C-1.1229 232.356 12.0771 245.256 12.3771 249.456C12.6771 254.256 4.8771 270.756 5.4771 274.656C6.3771 279.456 21.6771 290.256 22.5771 296.556C22.5771 304.656 21.0771 319.356 21.0771 323.256C24.3771 329.556 40.2771 333.456 42.0771 336.156C43.5771 339.156 44.1771 354.456 44.7771 359.256C45.0771 360.456 46.5771 362.256 48.3771 362.856C54.0771 365.256 65.1771 366.456 67.8771 368.856C71.1771 370.656 75.0771 389.556 78.6771 391.356C79.8771 392.256 98.4771 390.456 101.177 391.656L116.477 408.456C117.377 409.656 119.177 410.556 121.277 410.256C126.377 409.356 135.377 405.156 140.477 404.256C142.577 405.156 153.677 410.256 157.577 413.556C159.077 414.456 161.177 414.756 162.377 414.456C166.277 413.256 175.577 405.756 178.577 403.656C180.377 401.256 194.177 406.656 198.377 408.156C200.177 408.756 201.377 409.356 203.177 408.456C206.477 407.256 214.577 394.356 216.377 392.256C216.377 390.756 234.677 392.556 238.277 392.256C239.477 392.256 240.377 391.656 240.977 390.756C243.077 388.356 249.077 375.156 249.377 374.256V373.656V373.356V372.756V372.456L249.977 372.156C252.377 370.656 268.577 368.256 271.577 367.656C274.277 367.356 275.477 365.256 275.477 362.256L277.577 345.156C277.577 343.356 278.477 342.156 280.277 341.256L299.477 333.156C301.577 332.256 304.277 330.756 304.277 327.756C304.577 322.656 302.177 310.656 302.477 307.656L321.377 292.356C322.577 291.456 323.477 290.256 323.177 288.456C322.577 282.756 319.577 273.156 319.577 262.356L329.477 240.156L329.177 233.556L318.677 216.156L317.777 212.256Z" fill="#C73E3A"/>
<path d="M67.5779 144.756C61.2779 146.256 54.9779 150.756 57.0779 160.656C58.2779 168.156 64.5779 177.456 67.5779 179.556C69.0779 168.756 69.3779 159.156 73.5779 153.756L82.5779 143.556C79.2779 143.556 73.5779 143.256 67.5779 144.756Z" fill="#F5F0DF"/>
<path d="M111.377 104.556C100.577 104.256 96.0766 117.156 95.4766 128.856C103.577 122.556 108.977 115.656 114.977 114.756L132.077 113.256C128.177 110.256 118.577 104.556 111.377 104.556Z" fill="#F5F0DF"/>
<path d="M123.377 156.756C114.077 156.756 111.077 155.556 104.177 161.256C98.4768 166.656 101.177 178.356 106.277 186.156C110.477 170.256 115.577 165.756 117.377 164.256L123.377 156.756Z" fill="#F5F0DF"/>
<path d="M60.0773 194.556C56.4773 194.556 40.5773 200.256 40.2773 210.456C40.2773 217.656 47.1773 227.256 54.9773 230.556C54.0773 223.656 52.5773 213.156 54.9773 207.156L60.0773 194.556Z" fill="#F5F0DF"/>
<path d="M84.6766 233.256C82.5766 234.156 74.4766 241.656 74.4766 249.156C75.0766 260.256 88.2766 262.656 94.5766 263.256C86.1766 251.256 85.2766 246.156 84.6766 233.256Z" fill="#F5F0DF"/>
<path d="M66.3772 296.556L65.4772 294.456C63.0772 297.756 60.0772 303.156 60.6772 310.356C62.4772 324.456 78.0772 324.156 84.9772 322.356C74.4772 314.256 70.2772 309.156 66.3772 296.556Z" fill="#F5F0DF"/>
<path d="M169.577 363.156C164.477 365.256 155.477 366.156 148.277 366.456C151.577 370.656 164.177 379.656 173.477 376.356C182.477 373.356 184.577 357.456 183.377 352.656C178.577 356.256 171.977 360.456 169.577 363.156Z" fill="#F5F0DF"/>
<path d="M222.378 343.656L207.078 352.356C210.378 354.456 221.178 359.256 228.978 356.256C238.578 352.656 237.378 339.756 235.578 329.256L234.378 328.356C232.278 333.156 225.978 342.156 222.378 343.656Z" fill="#F5F0DF"/>
<path d="M210.078 304.656L192.078 309.456C196.278 312.756 206.178 318.756 213.378 316.656C218.478 315.156 221.178 308.556 221.478 305.256L222.078 295.356L210.078 304.656Z" fill="#F5F0DF"/>
<path d="M236.477 227.256C236.177 231.156 240.077 238.356 239.177 248.256L237.077 258.456C241.577 256.656 251.477 250.656 250.577 240.756C249.977 233.256 239.177 227.556 236.477 227.256Z" fill="#F5F0DF"/>
<path d="M266.477 282.156L252.977 303.456C260.477 303.756 277.277 300.756 277.277 290.256C276.977 280.656 270.077 271.356 266.477 264.756V282.156Z" fill="#F5F0DF"/>
<path d="M243.377 36.1562C240.077 37.3563 235.277 39.4563 235.277 45.4563C233.177 66.1563 233.477 92.2563 245.477 116.256C254.177 134.256 269.477 153.156 298.277 168.756C309.377 174.756 324.077 179.556 344.177 209.556C347.477 199.356 351.077 179.256 351.077 159.756C350.477 127.356 341.177 103.656 323.177 81.1563C303.377 57.7563 281.477 43.6563 243.377 36.1562Z" fill="#506D56"/>
<path d="M251.477 51.1562C265.277 69.4562 276.977 80.5563 291.077 99.4563C304.577 118.356 321.977 140.256 333.977 169.356C323.477 138.456 304.277 95.2562 251.477 51.1562Z" fill="#F5F0DF"/>
</svg>
