<svg xmlns="http://www.w3.org/2000/svg" viewBox="0 0 1024 1024" width="1024" height="1024">
  <!-- macOS-style rounded square background with standard inset -->
  <rect x="112" y="112" width="800" height="800" rx="180" ry="180" fill="#FFF7F4"/>
  <!-- Lychee icon centered and scaled up -->
  <g transform="translate(512, 530) scale(8.5)">
    <path d="M6-30 C10-40 18-44 24-38 C20-34 14-30 8-28Z" fill="#6B8F5E"/>
    <path d="M-2-30 C-8-42 -4-46 4-44 C2-38 0-32 -1-30Z" fill="#7DA06E"/>
    <circle cx="0" cy="0" r="34" fill="#C14B55"/>
    <circle cx="0" cy="-16" r="3" fill="#A83A44" opacity="0.4"/>
    <circle cx="-12" cy="-8" r="3" fill="#A83A44" opacity="0.35"/>
    <circle cx="12" cy="-8" r="3" fill="#A83A44" opacity="0.35"/>
    <circle cx="-6" cy="6" r="3" fill="#A83A44" opacity="0.35"/>
    <circle cx="6" cy="6" r="3" fill="#A83A44" opacity="0.35"/>
    <circle cx="0" cy="18" r="3" fill="#A83A44" opacity="0.35"/>
    <circle cx="-16" cy="6" r="2.5" fill="#A83A44" opacity="0.25"/>
    <circle cx="16" cy="6" r="2.5" fill="#A83A44" opacity="0.25"/>
    <circle cx="-10" cy="18" r="2.5" fill="#A83A44" opacity="0.25"/>
    <circle cx="10" cy="18" r="2.5" fill="#A83A44" opacity="0.25"/>
  </g>
</svg>
